<?xml version="1.0" encoding="iso-8859-1"?>
<!-- Generator: Adobe Illustrator 19.0.0, SVG Export Plug-In . SVG Version: 6.00 Build 0)  -->
<svg version="1.1" id="Capa_1" xmlns="http://www.w3.org/2000/svg" xmlns:xlink="http://www.w3.org/1999/xlink" x="0px" y="0px"
	 viewBox="0 0 511.998 511.998" style="enable-background:new 0 0 511.998 511.998;" xml:space="preserve">
<g>
	<g>
		<path d="M504.498,264.586c-4.142,0-7.5,3.358-7.5,7.5v81.721H15v-83.721c0-4.142-3.358-7.5-7.5-7.5s-7.5,3.358-7.5,7.5v91.221
			v7.966v30.835c0,4.142,3.358,7.5,7.5,7.5h81.744c4.142,0,7.5-3.358,7.5-7.5c0-4.142-3.358-7.5-7.5-7.5H15v-23.335v-0.466h481.998
			v0.466v23.335H123.421c-4.142,0-7.5,3.358-7.5,7.5c0,4.142,3.358,7.5,7.5,7.5h85.367v55.199h-24.792c-4.142,0-7.5,3.358-7.5,7.5
			v27.001c0,4.142,3.358,7.5,7.5,7.5h144.006c4.142,0,7.5-3.358,7.5-7.5v-27.001c0-4.142-3.358-7.5-7.5-7.5H303.21v-55.199h201.288
			c4.142,0,7.5-3.358,7.5-7.5v-30.835v-7.966v-89.221C511.998,267.944,508.64,264.586,504.498,264.586z M243.998,407.609H268v11.737
			c0,6.617-5.384,12.001-12.001,12.001s-12.001-5.384-12.001-12.001V407.609z M223.787,407.609h5.21v11.737
			c0,14.888,12.113,27.001,27.001,27.001S283,434.234,283,419.346v-11.737h5.21v55.199h-64.423V407.609z M320.502,477.808v12.001
			H191.496v-12.001H320.502z"/>
	</g>
</g>
<g>
	<g>
		<path d="M504.498,97.826h-46.81l-31.367-46.059c-3.986-5.853-10.593-9.347-17.674-9.347c-7.082,0-13.688,3.494-17.675,9.347
			L378.76,69.699C350.145,30.308,304.892,7.156,255.83,7.198c-0.123-0.001-0.245-0.008-0.367-0.008c-0.102,0-0.206,0-0.308,0
			c-37.982,0.211-74.252,14.513-102.129,40.271c-15.49,14.313-27.667,31.475-35.984,50.365H7.5c-4.142,0-7.5,3.358-7.5,7.5v130.582
			c0,4.142,3.358,7.5,7.5,7.5s7.5-3.358,7.5-7.5V112.826h96.375c-2.656,8.334-4.601,16.923-5.783,25.688
			c-5.981,0.798-11.391,4.091-14.839,9.154l-33.874,49.741c-4.472,6.567-4.943,15.01-1.229,22.034
			c3.714,7.023,10.958,11.387,18.903,11.387h47.753c26.584,49.412,77.497,79.915,133.673,79.914c0.287,0,0.576-0.001,0.863-0.002
			c40.541-0.226,78.567-16.225,107.074-45.05c28.507-28.826,44.083-67.027,43.857-107.568c0-0.001,0-0.001,0-0.002v-0.001v-0.001
			c-0.043-7.776-0.682-15.547-1.897-23.19h36.645c7.945,0,15.188-4.363,18.903-11.387c1.781-3.367,2.589-7.059,2.466-10.715h33.108
			V237.91c0,4.142,3.358,7.5,7.5,7.5c4.142,0,7.5-3.358,7.5-7.5V105.326C511.998,101.184,508.64,97.826,504.498,97.826z
			 M248.859,223.892c-18.49,1.012-36.508,5.386-53.222,12.798c-7.906-20.553-12.546-44.488-13.438-69.747l66.341-0.389
			L248.859,223.892z M248.457,151.554l-66.347,0.389c0.6-25.325,4.979-49.365,12.674-70.045
			c16.791,7.231,34.855,11.413,53.354,12.225L248.457,151.554z M247.743,22.958l0.312,56.14
			c-16.431-0.808-32.462-4.561-47.377-10.991c1.187-2.454,2.409-4.867,3.703-7.188C216.399,39.355,231.576,26.156,247.743,22.958z
			 M207.086,31.216c-5.708,6.311-11.012,13.798-15.807,22.402c-1.407,2.523-2.736,5.143-4.027,7.806
			c-5.358-3.047-10.524-6.464-15.46-10.238C182.566,42.755,194.461,36.047,207.086,31.216z M160.303,61.249
			c6.623,5.275,13.642,9.954,20.975,14.017c-8.648,22.701-13.566,49.074-14.179,76.765l-37.874,0.222l-3.123-4.586
			c-1.574-2.311-3.561-4.247-5.82-5.753C124.091,111.295,138.154,82.937,160.303,61.249z M74.553,215.828
			c-3.471,0.001-5.103-2.376-5.643-3.399c-0.541-1.022-1.587-3.709,0.367-6.578l33.874-49.741c1.208-1.773,3.131-2.791,5.277-2.791
			c2.145,0,4.068,1.017,5.276,2.791l33.875,49.741c1.954,2.869,0.907,5.556,0.367,6.578c-0.54,1.022-2.172,3.399-5.643,3.399H74.553
			z M139.601,230.829h2.701c7.945,0,15.188-4.363,18.903-11.387c3.715-7.024,3.244-15.466-1.228-22.034L139.4,167.195l27.788-0.163
			c0.934,27.62,6.137,53.875,15.015,76.433c-7.312,4.155-14.3,8.928-20.883,14.295C153.075,249.837,145.76,240.82,139.601,230.829z
			 M172.896,267.712c4.92-3.852,10.077-7.347,15.434-10.468c1.324,2.656,2.685,5.268,4.123,7.783
			c4.91,8.585,10.322,16.037,16.126,22.3C195.743,282.608,183.721,275.997,172.896,267.712z M205.475,257.58
			c-1.322-2.311-2.573-4.716-3.791-7.161c14.848-6.59,30.842-10.516,47.259-11.503l0.312,56.144
			C233.054,292.04,217.73,279.008,205.475,257.58z M369.722,82.971l-12.624,18.537c-4.473,6.567-4.943,15.009-1.229,22.033
			c3.714,7.024,10.958,11.387,18.903,11.387h15.89c0.921,5.202,1.544,10.478,1.861,15.781l-47.709,0.28
			c-0.926-27.652-6.132-53.94-15.02-76.523c7.303-4.15,14.285-8.917,20.862-14.277C357.725,66.987,364.126,74.605,369.722,82.971z
			 M339.085,50.232c-4.915,3.847-10.067,7.338-15.417,10.456c-1.325-2.657-2.686-5.269-4.124-7.784
			c-4.911-8.586-10.324-16.039-16.129-22.303C316.224,35.314,328.241,41.923,339.085,50.232z M262.742,22.873
			c16.201,3.019,31.525,16.052,43.781,37.48c1.322,2.311,2.573,4.715,3.791,7.161c-14.849,6.589-30.842,10.515-47.26,11.502
			L262.742,22.873z M263.138,94.038c18.49-1.012,36.509-5.387,53.223-12.799c7.915,20.577,12.558,44.544,13.442,69.837l-66.346,0.39
			L263.138,94.038z M263.54,166.466l66.344-0.389c-0.608,25.292-4.985,49.3-12.67,69.956c-16.792-7.231-34.855-11.412-53.355-12.225
			L263.54,166.466z M264.255,294.974l-0.312-56.142c16.425,0.811,32.459,4.566,47.376,10.995c-1.188,2.453-2.409,4.865-3.702,7.185
			C295.599,278.576,280.421,291.775,264.255,294.974z M304.842,286.793c5.734-6.327,11.062-13.839,15.877-22.478
			c1.407-2.524,2.735-5.144,4.026-7.806c5.365,3.049,10.536,6.471,15.476,10.249C329.415,275.237,317.504,281.961,304.842,286.793z
			 M353.25,255.143c-0.514,0.52-1.037,1.027-1.558,1.538c-6.622-5.275-13.641-9.953-20.973-14.016
			c8.638-22.676,13.555-49.018,14.177-76.676l47.712-0.28C390.984,199.433,377.174,230.952,353.25,255.143z M448.164,116.529
			c-0.541,1.022-2.172,3.399-5.643,3.399h-67.749c-3.471,0-5.103-2.377-5.643-3.399c-0.54-1.022-1.586-3.708,0.367-6.577
			l33.874-49.741c1.208-1.773,3.131-2.791,5.277-2.791c2.145,0,4.068,1.017,5.276,2.791l33.875,49.741
			C449.751,112.821,448.705,115.507,448.164,116.529z"/>
	</g>
</g>
<g>
	<g>
		<path d="M92.291,274.94H60.646c-4.142,0-7.5,3.358-7.5,7.5c0,4.142,3.357,7.5,7.5,7.5h31.645c4.142,0,7.5-3.358,7.5-7.5
			C99.791,278.298,96.433,274.94,92.291,274.94z"/>
	</g>
</g>
<g>
	<g>
		<path d="M92.291,299.88H60.646c-4.142,0-7.5,3.358-7.5,7.5c0,4.142,3.357,7.5,7.5,7.5h31.645c4.142,0,7.5-3.358,7.5-7.5
			C99.791,303.238,96.433,299.88,92.291,299.88z"/>
	</g>
</g>
<g>
	<g>
		<path d="M468.219,169.825h-31.645c-4.142,0-7.5,3.358-7.5,7.5c0,4.142,3.358,7.5,7.5,7.5h31.645c4.142,0,7.5-3.358,7.5-7.5
			C475.719,173.183,472.361,169.825,468.219,169.825z"/>
	</g>
</g>
<g>
	<g>
		<path d="M468.219,194.765h-31.645c-4.142,0-7.5,3.358-7.5,7.5c0,4.142,3.358,7.5,7.5,7.5h31.645c4.142,0,7.5-3.358,7.5-7.5
			C475.719,198.123,472.361,194.765,468.219,194.765z"/>
	</g>
</g>
<g>
</g>
<g>
</g>
<g>
</g>
<g>
</g>
<g>
</g>
<g>
</g>
<g>
</g>
<g>
</g>
<g>
</g>
<g>
</g>
<g>
</g>
<g>
</g>
<g>
</g>
<g>
</g>
<g>
</g>
</svg>
