<?xml version="1.0"?>
<svg xmlns="http://www.w3.org/2000/svg" height="512px" viewBox="0 -16 480 480" width="512px"><g><path d="m440 0h-400c-22.082031.0273438-39.9726562 17.917969-40 40v256c.0273438 22.082031 17.917969 39.972656 40 40h142.238281l-12.796875 64h-25.441406c-4.417969 0-8 3.582031-8 8v32c0 4.417969 3.582031 8 8 8h192c4.417969 0 8-3.582031 8-8v-32c0-4.417969-3.582031-8-8-8h-25.441406l-12.796875-64h142.238281c22.082031-.027344 39.972656-17.917969 40-40v-256c-.027344-22.082031-17.917969-39.9726562-40-40zm-400 16h400c13.253906 0 24 10.746094 24 24v232h-448v-232c0-13.253906 10.746094-24 24-24zm288 416h-176v-16h176zm-33.761719-32h-108.476562l12.796875-64h82.890625zm145.761719-80h-400c-13.253906 0-24-10.746094-24-24v-8h448v8c0 13.253906-10.746094 24-24 24zm0 0" data-original="#000000" class="active-path" data-old_color="#ffffff" fill="#ffffff"/><path d="m421.679688 298.320312c-3.207032-2.960937-8.152344-2.960937-11.359376 0-.722656.765626-1.292968 1.660157-1.679687 2.640626-.851563 1.9375-.851563 4.140624 0 6.078124.40625.96875.976563 1.863282 1.679687 2.640626.777344.707031 1.671876 1.273437 2.640626 1.679687 1.9375.855469 4.140624.855469 6.078124 0 2.011719-.726563 3.59375-2.308594 4.320313-4.320313.855469-1.9375.855469-4.140624 0-6.078124-.40625-.96875-.972656-1.863282-1.679687-2.640626zm0 0" data-original="#000000" class="active-path" data-old_color="#ffffff" fill="#ffffff"/><path d="m328 216c17.671875 0 32-14.328125 32-32s-14.328125-32-32-32-32 14.328125-32 32 14.328125 32 32 32zm0-48c8.835938 0 16 7.164062 16 16s-7.164062 16-16 16-16-7.164062-16-16 7.164062-16 16-16zm0 0" data-original="#000000" class="active-path" data-old_color="#ffffff" fill="#ffffff"/><path d="m344 120c0 8.835938-7.164062 16-16 16s-16-7.164062-16-16 7.164062-16 16-16 16 7.164062 16 16zm0 0" data-original="#000000" class="active-path" data-old_color="#ffffff" fill="#ffffff"/><path d="m128 216h144c4.417969 0 8-3.582031 8-8v-96c0-4.417969-3.582031-8-8-8h-144c-4.417969 0-8 3.582031-8 8v96c0 4.417969 3.582031 8 8 8zm8-96h128v80h-128zm0 0" data-original="#000000" class="active-path" data-old_color="#ffffff" fill="#ffffff"/><path d="m112 248h256c13.253906 0 24-10.746094 24-24v-128c0-13.253906-10.746094-24-24-24h-16v-16c0-4.417969-3.582031-8-8-8h-32c-4.417969 0-8 3.582031-8 8v16h-59.054688l-13.746093-27.574219c-1.359375-2.726562-4.152344-4.441406-7.199219-4.425781h-48c-3.03125 0-5.804688 1.710938-7.160156 4.425781l-13.785156 27.574219h-43.054688c-13.253906 0-24 10.746094-24 24v128c0 13.253906 10.746094 24 24 24zm208-184h16v8h-16zm-216 32c0-4.417969 3.582031-8 8-8h48c3.03125 0 5.804688-1.710938 7.160156-4.425781l13.785156-27.574219h38.109376l13.785156 27.574219c1.355468 2.714843 4.128906 4.425781 7.160156 4.425781h128c4.417969 0 8 3.582031 8 8v128c0 4.417969-3.582031 8-8 8h-256c-4.417969 0-8-3.582031-8-8zm0 0" data-original="#000000" class="active-path" data-old_color="#ffffff" fill="#ffffff"/></g> </svg>
