<?xml version="1.0" encoding="iso-8859-1"?>
<!-- Generator: Adobe Illustrator 16.0.0, SVG Export Plug-In . SVG Version: 6.00 Build 0)  -->
<!DOCTYPE svg PUBLIC "-//W3C//DTD SVG 1.1//EN" "http://www.w3.org/Graphics/SVG/1.1/DTD/svg11.dtd">
<svg version="1.1" id="Capa_1" xmlns="http://www.w3.org/2000/svg" xmlns:xlink="http://www.w3.org/1999/xlink" x="0px" y="0px"
	 width="68.28px" height="68.28px" viewBox="0 0 68.28 68.28" style="enable-background:new 0 0 68.28 68.28;" xml:space="preserve"
	>
<g>
	<g id="_x33_5">
		<g>
			<path d="M34.14,48.964c-13.152,0-27.128,3.386-27.128,9.659c0,6.271,13.976,9.657,27.128,9.657
				c13.151,0,27.127-3.386,27.127-9.657C61.267,52.35,47.292,48.964,34.14,48.964z M34.14,51.613c1.428,0,2.784,0.047,4.105,0.113
				c-0.025,0.101-0.061,0.195-0.061,0.303c0,2.729-2.219,4.949-4.941,4.949s-4.941-2.222-4.941-4.949
				c0-0.069-0.027-0.129-0.039-0.194C30.111,51.695,32.065,51.613,34.14,51.613z M34.14,65.631c-15.169,0-24.482-4.082-24.482-7.008
				c0-2.346,5.998-5.432,16.188-6.564c0.017,4.072,3.327,7.383,7.397,7.383c4.08,0,7.399-3.325,7.399-7.411
				c0-0.052-0.022-0.095-0.028-0.144c11.288,0.95,18.007,4.256,18.007,6.736C58.623,61.549,49.308,65.631,34.14,65.631z
				 M65.817,54.615l-8.063-10.041c-2.465-3.065-3.499-7.051-2.842-10.931l0.237-1.404c0.945-5.582-0.604-11.263-4.252-15.587
				c-2.767-3.281-6.503-5.497-10.613-6.378V6.106C40.284,2.738,37.549,0,34.091,0c-3.361,0-6.097,2.738-6.097,6.106v4.168
				c-4.11,0.881-7.847,3.097-10.612,6.378c-3.646,4.324-5.197,10.005-4.253,15.587l0.238,1.404c0.657,3.88-0.377,7.865-2.842,10.931
				L2.462,54.615c-0.425,0.529-0.341,1.306,0.188,1.73c0.529,0.424,1.301,0.344,1.728-0.188l8.064-10.041
				c2.902-3.616,4.125-8.312,3.351-12.889l-0.238-1.403c-0.822-4.863,0.526-9.818,3.706-13.587c3.181-3.77,7.826-5.931,12.755-5.931
				h4.252c4.928,0,9.572,2.161,12.754,5.931c3.18,3.769,4.527,8.724,3.705,13.587l-0.237,1.403
				c-0.775,4.575,0.446,9.272,3.351,12.889l8.063,10.041c0.243,0.303,0.601,0.459,0.958,0.459c0.271,0,0.542-0.09,0.771-0.271
				C66.158,55.921,66.242,55.145,65.817,54.615z M37.827,9.847h-7.373v-3.74c0-2.01,1.632-3.645,3.734-3.645
				c2.006,0,3.639,1.635,3.639,3.645V9.847z"/>
		</g>
	</g>
</g>
<g>
</g>
<g>
</g>
<g>
</g>
<g>
</g>
<g>
</g>
<g>
</g>
<g>
</g>
<g>
</g>
<g>
</g>
<g>
</g>
<g>
</g>
<g>
</g>
<g>
</g>
<g>
</g>
<g>
</g>
</svg>
