<?xml version="1.0" encoding="iso-8859-1"?>
<!-- Generator: Adobe Illustrator 19.0.0, SVG Export Plug-In . SVG Version: 6.00 Build 0)  -->
<svg version="1.1" id="Capa_1" xmlns="http://www.w3.org/2000/svg" xmlns:xlink="http://www.w3.org/1999/xlink" x="0px" y="0px"
	 viewBox="0 0 512 512" style="enable-background:new 0 0 512 512;" xml:space="preserve">
<g>
	<g>
		<path d="M505.33,116.133c-4.138-0.459-7.837,2.503-8.301,6.624c-1.599,14.228-6.474,27.518-14.488,39.5
			c-21.609,32.309-61.218,46.836-98.557,36.154c-1.743-0.5-3.604-0.35-5.245,0.417l-40.516,18.937l2.03-44.676
			c0.082-1.809-0.492-3.587-1.618-5.006c-24.133-30.432-25.83-72.587-4.221-104.895c27.314-40.839,82.761-51.842,123.599-24.529
			c19.811,13.251,33.264,33.426,37.879,56.81c0.804,4.068,4.754,6.714,8.822,5.912c4.069-0.803,6.716-4.753,5.913-8.822
			c-5.394-27.325-21.114-50.9-44.264-66.384C418.64-5.743,353.848,7.114,321.93,54.837c-24.719,36.96-23.338,84.948,3.195,120.317
			l-2.469,54.328c-0.119,2.625,1.142,5.121,3.326,6.583c1.256,0.84,2.712,1.268,4.176,1.268c1.081,0,2.167-0.233,3.179-0.707
			l49.268-23.028c8.66,2.229,17.4,3.308,26.045,3.308c34.101-0.001,66.655-16.813,86.374-46.299
			c9.231-13.802,15.084-29.768,16.928-46.172C512.417,120.312,509.451,116.596,505.33,116.133z"/>
	</g>
</g>
<g>
	<g>
		<path d="M199.065,222.444h-8.777v-29.192c0-4.147-3.362-7.509-7.509-7.509c-4.147,0-7.509,3.362-7.509,7.509v36.701
			c0,4.147,3.362,7.509,7.509,7.509h16.286c4.147,0,7.509-3.362,7.509-7.509C206.574,225.806,203.212,222.444,199.065,222.444z"/>
	</g>
</g>
<g>
	<g>
		<path d="M356.796,386.527c-2.781-3.078-7.53-3.318-10.606-0.541c-3.079,2.778-3.321,7.527-0.543,10.606
			c14.544,16.111,22.554,36.915,22.554,58.58v33.178H235.233V348.767l72.242,23.164c5.825,1.868,11.497,4.377,16.856,7.455
			c3.595,2.064,8.185,0.826,10.251-2.771c2.065-3.596,0.824-8.186-2.772-10.251c-6.274-3.604-12.918-6.542-19.75-8.733
			l-76.836-24.636v-45.388c15.643-11.312,27.473-27.007,34.173-44.804c16.647-0.672,29.984-14.417,29.984-31.225
			c0-14.646-10.127-26.965-23.745-30.338v-33.5c0-37.039-30.134-67.173-67.173-67.173h-33.712c-2.661,0-5.294,0.154-7.796,0.454
			c-33.851,3.912-59.378,32.595-59.378,66.72v9.622c0,0.023,0,0.047,0,0.07v23.807c-13.617,3.374-23.743,15.693-23.743,30.338
			c0,16.807,13.335,30.553,29.98,31.225c6.698,17.799,18.527,33.495,34.167,44.804v45.388L71.147,357.63
			C28.593,371.278,0,410.477,0,455.172v40.687c0,4.147,3.362,7.509,7.509,7.509h73.476c4.147,0,7.509-3.362,7.509-7.509
			s-3.362-7.509-7.509-7.509H15.018v-33.178c0-8.344,1.167-16.463,3.372-24.179c0.63-2.205,1.345-4.376,2.141-6.511
			c0.796-2.135,1.674-4.232,2.63-6.288c10.041-21.588,28.741-38.622,52.575-46.265l43.643-13.994l28.599-9.17v139.583h-37.41
			c-4.147,0-7.509,3.362-7.509,7.509s3.362,7.509,7.509,7.509h265.144c4.148,0,7.509-3.362,7.509-7.509v-40.687
			C383.221,429.781,373.837,405.403,356.796,386.527z M275.638,208.633v-11.441c5.18,2.717,8.726,8.14,8.726,14.383
			c0,6.914-4.351,12.816-10.451,15.155C275.043,220.815,275.638,214.759,275.638,208.633z M98.853,211.576
			c0-6.242,3.546-11.666,8.725-14.382v11.44c0,6.126,0.595,12.181,1.724,18.097C103.203,224.391,98.853,218.489,98.853,211.576z
			 M208.465,95.583c28.758,0,52.155,23.396,52.155,52.155v32.316c-61.825-4.348-79.485-62.107-84.014-84.471H208.465z
			 M156.967,98.69c-9.393,26.895-24.452,40.369-34.314,46.661C123.617,123.993,137.452,105.738,156.967,98.69z M122.597,208.633
			v-20.709c0-0.033,0.005-0.064,0.005-0.097s-0.004-0.064-0.005-0.097v-25.251c9.593-4.514,29.941-17.113,43.779-47.023
			c3.24,10.023,8.124,21.797,15.405,33.134c18.293,28.477,45.442,44.446,78.838,46.513v13.531c0,29.051-15.551,56.253-40.576,70.985
			l-11.31,6.641c-10.598,6.216-23.757,6.207-34.339-0.02l-11.223-6.618C138.144,264.889,122.597,237.688,122.597,208.633z
			 M163,334.571v-37.615l3.772,2.224c7.65,4.501,16.227,6.752,24.808,6.752c8.558,0,17.12-2.24,24.757-6.72l3.873-2.274v37.636
			l-1.292,0.906l-27.311,19.153L163,334.571z M180.621,365.271L163,386.097v-29.378c0-0.003,0-0.006,0-0.01v-3.796L180.621,365.271z
			 M220.209,352.918v3.792c-0.001,0.03,0.003,0.058,0.004,0.087v29.301l-17.619-20.823L220.209,352.918z M162.996,452.159v-42.807
			l0.206-0.244l3.369,9.034L162.996,452.159z M174.293,488.347l7.399-70.39c0.121-1.154-0.027-2.321-0.433-3.409l-6.932-18.587
			l17.279-20.42l17.36,20.516l-6.896,18.493c-0.405,1.086-0.554,2.253-0.432,3.408l7.399,70.39H174.293z M220.215,451.043
			l-3.458-32.901l3.334-8.939l0.124,0.147V451.043z"/>
	</g>
</g>
<g>
	<g>
		<path d="M440.497,80.546c-1.131-15.204-13.449-27.535-28.651-28.682c-13.104-0.989-25.499,6.391-30.846,18.362
			c-1.69,3.786,0.009,8.227,3.796,9.918c3.783,1.691,8.226-0.007,9.918-3.795c2.769-6.202,9.189-10.026,16.001-9.51
			c7.856,0.593,14.22,6.965,14.805,14.824c0.266,3.566-0.604,7.016-2.515,9.977c-1.945,3.014-5.072,5.319-8.807,6.494
			c-10.742,3.379-17.4,6.824-17.4,13.549v22.957c0,4.147,3.361,7.509,7.509,7.509s7.509-3.362,7.509-7.509v-19.622
			c1.371-0.632,3.587-1.52,6.888-2.558c7.069-2.224,13.077-6.725,16.919-12.675C439.322,94.052,441.008,87.399,440.497,80.546z"/>
	</g>
</g>
<g>
	<g>
		<path d="M404.757,149.507c-5.518,0.001-10.007,4.489-10.007,10.007c0,5.518,4.488,10.006,10.007,10.006
			c5.518,0,10.006-4.488,10.006-10.006C414.763,153.997,410.274,149.507,404.757,149.507z"/>
	</g>
</g>
<g>
</g>
<g>
</g>
<g>
</g>
<g>
</g>
<g>
</g>
<g>
</g>
<g>
</g>
<g>
</g>
<g>
</g>
<g>
</g>
<g>
</g>
<g>
</g>
<g>
</g>
<g>
</g>
<g>
</g>
</svg>
