<?xml version="1.0" encoding="iso-8859-1"?>
<!-- Generator: Adobe Illustrator 16.0.0, SVG Export Plug-In . SVG Version: 6.00 Build 0)  -->
<!DOCTYPE svg PUBLIC "-//W3C//DTD SVG 1.1//EN" "http://www.w3.org/Graphics/SVG/1.1/DTD/svg11.dtd">
<svg version="1.1" id="Capa_1" xmlns="http://www.w3.org/2000/svg" xmlns:xlink="http://www.w3.org/1999/xlink" x="0px" y="0px"
	 width="61.66px" height="61.661px" viewBox="0 0 61.66 61.661" style="enable-background:new 0 0 61.66 61.661;"
	 xml:space="preserve">
<g>
	<g id="_x31_9_1_">
		<g>
			<path d="M34.516,1.055c-0.679,0-1.229,0.551-1.229,1.23v24.853c0,0.681,0.549,1.23,1.229,1.23h25.916
				c0.678,0,1.229-0.55,1.229-1.23C61.66,10.805,51.514,1.055,34.516,1.055z M35.745,25.907V3.534
				c14.504,0.43,22.968,8.51,23.437,22.373H35.745z M53.215,30.868H34.773c-0.356,0-0.688,0.205-0.922,0.474
				c-0.232,0.27-0.33,0.676-0.281,1.029c0.025,0.17,0.052,0.339,0.052,0.515c0,3.074-2.496,5.577-5.563,5.577
				s-5.563-2.503-5.563-5.577c0-3.07,2.487-5.568,5.607-5.568c0.041,0.008,0.259,0.027,0.296,0.027
				c0.351,0.043,0.666-0.104,0.909-0.337c0.245-0.233,0.382-0.556,0.382-0.892V7.305c0-0.68-0.549-1.23-1.229-1.23
				C11.438,6.075,0,17.198,0,33.75c0,15.06,11.958,26.854,27.224,26.854c16.28,0,27.219-11.455,27.219-28.506
				C54.443,31.419,53.895,30.868,53.215,30.868z M27.224,58.144c-14.119,0-24.767-10.485-24.767-24.394
				c0-14.68,9.902-24.674,24.776-25.193V24.89c-4.037,0.414-7.195,3.842-7.195,7.996c0,4.433,3.598,8.039,8.021,8.039
				c4.273,0,7.777-3.368,8.009-7.595h15.896C51.473,48.45,41.873,58.144,27.224,58.144z"/>
		</g>
	</g>
</g>
<g>
</g>
<g>
</g>
<g>
</g>
<g>
</g>
<g>
</g>
<g>
</g>
<g>
</g>
<g>
</g>
<g>
</g>
<g>
</g>
<g>
</g>
<g>
</g>
<g>
</g>
<g>
</g>
<g>
</g>
</svg>
