<?xml version="1.0"?>
<svg xmlns="http://www.w3.org/2000/svg" xmlns:xlink="http://www.w3.org/1999/xlink" version="1.1" id="Capa_1" x="0px" y="0px" viewBox="0 0 423.255 423.255" style="enable-background:new 0 0 423.255 423.255;" xml:space="preserve" data-lt-installed="true" width="512px" height="512px" class=""><g><g>
	<g>
		<path d="M300.373,191.147c-11.293,0-20.48,9.187-20.48,20.48c0,45.17-36.746,81.92-81.92,81.92c-45.174,0-81.92-36.75-81.92-81.92    c0-44.324,34.681-80.283,78.954-81.867c3.767-0.137,6.714-3.301,6.574-7.067c-0.128-3.772-3.441-6.666-7.067-6.579    c-51.654,1.847-92.114,43.803-92.114,95.514c0,52.7,42.873,95.573,95.573,95.573c52.7,0,95.573-42.873,95.573-95.573    c0-3.763,3.06-6.827,6.827-6.827c3.767,0,6.827,3.063,6.827,6.827c0,60.227-49,109.227-109.227,109.227    s-109.227-49-109.227-109.227c0-58.911,47.901-107.897,106.774-109.196c3.767-0.087,6.753-3.21,6.673-6.977    c-0.087-3.721-3.127-6.677-6.827-6.677c-0.048,0-0.101,0-0.154,0.003c-66.234,1.463-120.12,56.573-120.12,122.846    c0,67.756,55.127,122.88,122.88,122.88c67.755,0,122.88-55.124,122.88-122.88C320.853,200.334,311.666,191.147,300.373,191.147z" data-original="#000000" class="active-path" data-old_color="#ffffff" fill="#ffffff"/>
	</g>
</g><g>
	<g>
		<path d="M282.947,103.121l-81.92-40.96c-2.121-1.053-4.627-0.945-6.641,0.3c-2.012,1.242-3.239,3.439-3.239,5.806v81.92    c0,2.365,1.225,4.562,3.239,5.806c1.094,0.678,2.342,1.021,3.587,1.021c1.048,0,2.087-0.241,3.053-0.72l81.92-40.96    c2.314-1.157,3.773-3.519,3.773-6.107C286.72,106.64,285.259,104.278,282.947,103.121z M204.8,139.142V79.315l59.827,29.913    L204.8,139.142z" data-original="#000000" class="active-path" data-old_color="#ffffff" fill="#ffffff"/>
	</g>
</g><g>
	<g>
		<path d="M197.973,170.667c-22.586,0-40.96,18.374-40.96,40.96s18.374,40.96,40.96,40.96c22.588,0,40.96-18.374,40.96-40.96    S220.559,170.667,197.973,170.667z M197.973,238.934c-15.06,0-27.307-12.25-27.307-27.307s12.247-27.307,27.307-27.307    c15.061,0,27.307,12.25,27.307,27.307S213.033,238.934,197.973,238.934z" data-original="#000000" class="active-path" data-old_color="#ffffff" fill="#ffffff"/>
	</g>
</g><g>
	<g>
		<path d="M197.973,13.654C88.813,13.654,0,102.464,0,211.627s88.813,197.973,197.973,197.973c11.295,0,20.48-9.187,20.48-20.48    s-9.187-20.48-20.48-20.48c-86.579,0-157.013-70.436-157.013-157.013S111.394,54.614,197.973,54.614    c82.801,0,151.634,64.683,156.715,147.26c0.227,3.763,3.4,6.7,7.233,6.393c3.76-0.229,6.627-3.47,6.393-7.233    c-5.521-89.76-80.341-160.073-170.341-160.073c-94.107,0-170.667,76.559-170.667,170.667s76.559,170.667,170.667,170.667    c3.767,0,6.827,3.063,6.827,6.827s-3.06,6.827-6.827,6.827c-101.634,0-184.32-82.686-184.32-184.32s82.686-184.32,184.32-184.32    c98.567,0,179.441,77.076,184.105,175.471c0.174,3.77,3.408,6.564,7.148,6.497c3.76-0.181,6.673-3.378,6.494-7.144    C390.707,96.444,303.846,13.654,197.973,13.654z" data-original="#000000" class="active-path" data-old_color="#ffffff" fill="#ffffff"/>
	</g>
</g><g>
	<g>
		<path d="M422.233,201.21c-1.246-2.009-3.439-3.236-5.806-3.236h-81.92c-2.365,0-4.56,1.225-5.806,3.236    c-1.248,2.014-1.36,4.528-0.3,6.644l40.96,81.92c1.161,2.314,3.519,3.773,6.107,3.773c2.587,0,4.948-1.459,6.106-3.773    l40.96-81.92C423.593,205.736,423.479,203.224,422.233,201.21z M375.467,271.458l-29.913-59.831h59.827L375.467,271.458z" data-original="#000000" class="active-path" data-old_color="#ffffff" fill="#ffffff"/>
	</g>
</g></g> </svg>
