<svg height="512pt" viewBox="0 0 512 512" width="512pt" xmlns="http://www.w3.org/2000/svg" xmlns:xlink="http://www.w3.org/1999/xlink"><linearGradient id="a" gradientUnits="userSpaceOnUse" x1="0" x2="512" y1="256" y2="256"><stop offset="0" stop-color="#00f38d"/><stop offset="1" stop-color="#009eff"/></linearGradient><path d="m512 256c0 141.386719-114.613281 256-256 256s-256-114.613281-256-256 114.613281-256 256-256 256 114.613281 256 256zm0 0" fill="url(#a)"/><g fill="#fff"><path d="m185.59375 173.824219c22.019531 0 39.929688-17.914063 39.929688-39.929688s-17.910157-39.929687-39.929688-39.929687c-22.015625 0-39.929688 17.914062-39.929688 39.929687s17.914063 39.929688 39.929688 39.929688zm0-49.859375c5.476562 0 9.929688 4.457031 9.929688 9.929687 0 5.476563-4.453126 9.929688-9.929688 9.929688s-9.929688-4.453125-9.929688-9.929688c0-5.472656 4.457032-9.929687 9.929688-9.929687zm0 0"/><path d="m339.492188 316.460938v24.308593h-51.726563v23.683594h-21.730469v-65.207031l-42.382812-18.695313v-60.023437c0-22.019532-17.910156-39.929688-39.929688-39.929688h-28.667968v.0625c-12.5625.664063-24.074219 7.175782-31.101563 17.71875l-28.773437 43.160156v53.777344h30v-44.695312l14.875-22.3125v187.292968h30v-205.003906h13.667968c5.476563 0 9.929688 4.453125 9.929688 9.929688v79.578125l42.382812 18.699219v69.332031h-42.960937v30h72.960937v-23.683594h51.730469v-23.683594h51.726563v-24.308593h47.324218v-30zm0 0"/><path d="m354.492188 136.292969 33.023437 33.019531 21.210937-21.210938-54.234374-54.238281-54.675782 54.679688 21.210938 21.210937zm0 0"/><path d="m339.570312 212.589844v82.101562h30v-81.941406l17.945313 17.941406 21.210937-21.214844-54.234374-54.234374-54.675782 54.675781 21.210938 21.214843zm0 0"/></g></svg>