<?xml version="1.0"?>
<svg xmlns="http://www.w3.org/2000/svg" height="512px" viewBox="-80 0 511 511.99958" width="512px" data-lt-installed="true" class=""><g><path d="m72.234375 90.386719c4.027344 1.121093 8.203125-1.230469 9.3125-5.265625 5.742187-20.664063 18.101563-38.199219 34.40625-50.578125 62.992187-47.859375 153.890625-2.804688 153.890625 76.296875v92.808594c0 15.480468-6.699219 31.277343-19.894531 46.957031-4.175781 4.941406-.558594 12.441406 5.789062 12.441406 2.148438 0 4.289063-.917969 5.792969-2.695313 15.558594-18.484374 23.445312-37.5625 23.445312-56.703124v-46.277344c20.445313 12.363281 44.652344 16.355468 48.914063 16.355468 8.644531 0 15.097656-7.835937 13.511719-16.253906-4.148438-22.117187-12.957032-39.519531-26.222656-51.871094 10.332031-8.933593 22.359374-25.007812 30.246093-43.765624 3.628907-8.675782-2.320312-18.355469-11.671875-19.019532-24.824218-1.78125-47.355468 3.042969-66.148437 19.128906-45.1875-91.980468-179.636719-78.15625-206.636719 19.128907-1.121094 4.027343 1.242188 8.203125 5.265625 9.3125zm259.910156 67.933593c-11.804687-1.878906-31.054687-6.742187-47.167969-19.273437v-13.4375c8.464844-2.230469 16.476563-5.769531 24.003907-10.625 11.511719 9.878906 19.289062 24.417969 23.164062 43.335937zm4.542969-100.53125c-10.253906 23.308594-27.597656 43.988282-51.730469 51.960938-.085937-10.71875-1.726562-21.726562-5.234375-32.699219 14.816406-15.648437 35.363282-20.449219 56.964844-19.261719zm0 0" data-original="#000000" class="active-path" data-old_color="#1d7be8" fill="#1d7be8"/><path d="m233.136719 163.277344c0 6.769531-5.488281 12.257812-12.257813 12.257812-6.769531 0-12.257812-5.488281-12.257812-12.257812 0-6.769532 5.488281-12.257813 12.257812-12.257813 6.769532 0 12.257813 5.488281 12.257813 12.257813zm0 0" data-original="#000000" class="active-path" data-old_color="#1d7be8" fill="#1d7be8"/><path d="m139.289062 163.277344c0 6.769531-5.488281 12.257812-12.257812 12.257812s-12.257812-5.488281-12.257812-12.257812c0-6.769532 5.488281-12.257813 12.257812-12.257813s12.257812 5.488281 12.257812 12.257813zm0 0" data-original="#000000" class="active-path" data-old_color="#1d7be8" fill="#1d7be8"/><path d="m232.925781 128.605469h-118.496093c-18.820313 0-34.132813 15.3125-34.132813 34.132812 0 18.824219 15.3125 34.140625 34.132813 34.140625h119.050781c9.238281 0 17.902343-3.65625 24.394531-10.304687 21.351562-21.847657 5.265625-57.96875-24.949219-57.96875zm14.125 47.390625c-3.621093 3.707031-8.441406 5.75-13.570312 5.75h-119.050781c-10.476563 0-19-8.527344-19-19.007813 0-10.476562 8.523437-19 19-19h118.496093c17.039063 0 26.050781 20.058594 14.125 32.257813zm0 0" data-original="#000000" class="active-path" data-old_color="#1d7be8" fill="#1d7be8"/><path d="m338.742188 272.460938c-13.539063-8.769532-31.648438-4.921876-40.457032 8.675781l-38.378906 59.355469c-9.867188-4.339844-20.25-7.585938-30.964844-9.625-7.484375-1.421876-12.914062-8-12.914062-15.648438v-17.546875c7.6875-4.410156 15.417968-9.605469 22.609375-15.304687 3.269531-2.601563 3.824219-7.355469 1.230469-10.632813-2.601563-3.269531-7.363282-3.824219-10.632813-1.222656-12.378906 9.824219-39.628906 26.96875-55.277344 26.96875-22.824219 0-95.890625-43.296875-95.890625-93.832031v-90.628907c0-4.179687-3.390625-7.570312-7.566406-7.570312s-7.566406 3.390625-7.566406 7.570312v90.628907c0 39.496093 34.703125 74.367187 68.949218 94.042968v17.527344c0 7.636719-5.480468 14.226562-13.015624 15.667969-28.714844 5.476562-54.867188 19.351562-75.648438 40.136719-27.285156 27.289062-42.71875 63.722656-42.71875 103.394531.03125 20.722656 17 37.582031 37.835938 37.582031h271.238281c20.90625 0 37.835937-16.894531 37.835937-37.835938 0-11.882812-1.433594-23.710937-4.257812-35.152343-1.007813-4.054688-5.113282-6.527344-9.171875-5.527344-4.054688 1.007813-6.527344 5.105469-5.519531 9.160156 2.535156 10.25 3.816406 20.855469 3.816406 31.519531 0 12.460938-10.054688 22.703126-22.703125 22.703126h-21.453125v-51.886719c0-4.179688-3.386719-7.566407-7.566406-7.566407-4.179688 0-7.566407 3.386719-7.566407 7.566407v51.886719h-198.066406v-51.886719c0-4.179688-3.386719-7.566407-7.566406-7.566407-4.179688 0-7.566407 3.386719-7.566407 7.566407v51.886719h-21.453124c-12.28125 0-22.703126-9.8125-22.703126-22.703126 0-34.917968 13.601563-67.75 38.289063-92.449218 18.625-18.613282 42.0625-31.054688 67.78125-35.96875 14.667969-2.792969 25.3125-15.636719 25.3125-30.527344v-9.816406c21.75 9.609375 32.203125 9.542968 53.878906-.03125v9.847656c0 14.910156 10.601563 27.734375 25.222657 30.519531 39.867187 7.605469 74.332031 33.804688 92.476562 70.128907 1.867188 3.734374 6.410156 5.246093 10.152344 3.390624 3.730468-1.867187 5.253906-6.414062 3.390625-10.148437-6.417969-12.855469-14.671875-24.566406-24.367188-34.847656l39.660157-61.355469c8.78125-13.554688 4.90625-31.679688-8.6875-40.445312zm-4.015626 32.234374-38.09375 58.929688c-7.164062-6.152344-14.902343-11.613281-23.117187-16.292969l37.484375-57.972656c2.046875-3.167969 5.203125-5.347656 8.898438-6.144531 12.324218-2.660156 21.605468 11 14.828124 21.480468zm0 0" data-original="#000000" class="active-path" data-old_color="#1d7be8" fill="#1d7be8"/></g> </svg>
