<?xml version="1.0"?>
<svg xmlns="http://www.w3.org/2000/svg" height="512px" viewBox="-41 1 511 511.99939" width="512px" data-lt-installed="true" class=""><g><path d="m158.324219 106.527344c-38.515625 0-69.308594 31.292968-69.308594 69.308594v66.503906c0 11.695312 9.511719 21.210937 21.210937 21.210937 11.699219 0 21.222657-9.515625 21.222657-21.210937v-66.503906c0-14.816407 12.058593-26.886719 26.875-26.886719h.332031c14.640625.179687 26.546875 12.238281 26.546875 26.886719v41.113281h-6.441406c-10.449219 0-18.957031 8.507812-18.957031 18.964843v158.664063c0 10.449219 8.507812 18.957031 18.957031 18.957031h142.746093c10.460938 0 18.957032-8.507812 18.957032-18.957031v-158.664063c0-10.457031-8.496094-18.964843-18.957032-18.964843h-93.871093v-41.113281c0-38.222657-31.085938-69.308594-69.3125-69.308594zm.425781 27.320312h-.425781c-23.140625 0-41.976563 18.835938-41.976563 41.988282v66.503906c0 3.359375-2.75 6.109375-6.121094 6.109375-3.371093 0-6.109374-2.75-6.109374-6.109375v-66.503906c0-29.671876 24.015624-54.210938 54.207031-54.210938 29.898437 0 54.210937 24.324219 54.210937 54.210938v41.113281h-12.230468v-41.113281c0-22.871094-18.605469-41.707032-41.554688-41.988282zm162.757812 98.203125c2.125 0 3.855469 1.730469 3.855469 3.863281v158.664063c0 2.125-1.730469 3.855469-3.855469 3.855469h-142.746093c-2.125 0-3.855469-1.730469-3.855469-3.855469v-158.664063c0-2.132812 1.730469-3.863281 3.855469-3.863281zm0 0" data-original="#000000" class="active-path" data-old_color="#1d7be8" fill="#1d7be8"/><path d="m230.785156 323.4375v21.320312c0 5.4375 2.316406 10.660157 6.363282 14.324219 12.375 11.226563 32.34375 2.554688 32.34375-14.695312v-20.949219c23.390624-17.914062 11.703124-55.199219-17.324219-56.988281-31.464844-1.984375-46.15625 37.875-21.382813 56.988281zm20.449219-41.917969c15.527344.960938 21.355469 21.011719 8.726563 30.1875-3.484376 2.558594-5.566407 6.644531-5.566407 10.945313v21.734375c0 3.949219-4.265625 6.074219-7.097656 3.511719-.535156-.472657-1.410156-1.519532-1.410156-3.140626v-22.105468c0-4.480469-2.234375-8.542969-5.535157-10.914063-4.339843-3.140625-6.925781-8.203125-6.925781-13.550781 0-9.679688 8.148438-17.257812 17.808594-16.667969zm0 0" data-original="#000000" class="active-path" data-old_color="#1d7be8" fill="#1d7be8"/><path d="m142.269531 458.132812c-91.386719-68.339843-129.152343-188.734374-126.570312-300.15625.078125-3.835937 3.050781-6.984374 6.90625-7.335937 15.613281-1.421875 31.175781-4.863281 46.257812-10.238281 3.925781-1.402344 5.96875-5.730469 4.570313-9.65625-1.402344-3.925782-5.71875-5.96875-9.644532-4.570313-13.882812 4.953125-28.199218 8.125-42.542968 9.421875-11.527344 1.046875-20.40625 10.542969-20.648438 22.066406-1.007812 45.28125 5.664063 99.523438 20.839844 147.964844 21.996094 70.195313 59.605469 125.574219 111.78125 164.59375 1.359375 1.015625 2.949219 1.5 4.519531 1.5 7.25 0 10.324219-9.25 4.53125-13.589844zm0 0" data-original="#000000" class="active-path" data-old_color="#1d7be8" fill="#1d7be8"/><path d="m417.40625 227.398438c-4.128906-.613282-7.953125 2.246093-8.558594 6.371093-13.347656 91.207031-57.378906 210.8125-191.320312 262.605469-1.78125.695312-3.792969.695312-5.574219 0-15.945313-6.160156-31.179687-13.539062-45.28125-21.9375-3.585937-2.132812-8.214844-.953125-10.347656 2.628906-2.136719 3.585938-.957031 8.214844 2.625 10.347656 14.828125 8.820313 30.824219 16.582032 47.554687 23.042969 5.144532 2.003907 11.058594 2.109375 16.472656 0 117.75-45.523437 182.242188-147.589843 200.8125-274.5.605469-4.128906-2.253906-7.953125-6.382812-8.558593zm0 0" data-original="#000000" class="active-path" data-old_color="#1d7be8" fill="#1d7be8"/><path d="m428.882812 157.664062c-.242187-11.523437-9.121093-21.019531-20.648437-22.066406-91.535156-8.3125-152.429687-90.21875-174.367187-125.039062-8.890626-14.105469-29.421876-14.050782-38.253907 0-16.78125 26.648437-52.78125 75.5625-105.308593 103.789062-3.675782 1.984375-5.054688 6.554688-3.082032 10.226563 1.972656 3.675781 6.554688 5.054687 10.230469 3.082031 55.578125-29.878906 93.359375-81.148438 110.933594-109.054688 2.949219-4.671874 9.761719-4.667968 12.707031 0 41.921875 66.589844 106.476562 124.824219 185.78125 132.039063 3.855469.351563 6.828125 3.5 6.90625 7.335937.300781 13.011719-.136719 29.375-1.539062 46.226563-.375 4.40625 3.113281 8.175781 7.53125 8.175781 3.882812 0 7.1875-2.980468 7.507812-6.925781 1.445312-17.285156 1.902344-34.074219 1.601562-47.789063zm0 0" data-original="#000000" class="active-path" data-old_color="#1d7be8" fill="#1d7be8"/></g> </svg>
