<?xml version="1.0"?>
<svg xmlns="http://www.w3.org/2000/svg" height="512px" viewBox="-16 0 512 512" width="512px" data-lt-installed="true" class=""><g><path d="m239.984375 512c-114.6875 0-208-93.3125-208-208v-96c0-114.6875 93.3125-208 208-208s208 93.3125 208 208v96c0 114.6875-93.3125 208-208 208zm0 0" fill="#f9ddaa" data-original="#F9DDAA" class="" style="fill:#6300FF" data-old_color="#F9DDAA"/><path d="m239.984375 480c-114.6875 0-208-93.3125-208-208v32c0 114.6875 93.3125 208 208 208s208-93.3125 208-208v-32c0 114.6875-93.3125 208-208 208zm0 0" fill="#f7ce8a" data-original="#F7CE8A" class="" style="fill:#0044FF" data-old_color="#F7CE8A"/><path d="m239.984375 448c-52.941406 0-96-43.054688-96-96v-16h192v16c0 52.945312-43.054687 96-96 96zm0 0" fill="#e76e54" data-original="#E76E54" class="" style="fill:#F03FA5" data-old_color="#E76E54"/><path d="m173.984375 292.496094-124.976563-45.488282c-38.589843-14.03125-58.558593-56.878906-44.511718-95.472656 12.320312-33.917968 46.832031-53.519531 81.28125-48.175781 7.566406-12.511719 18.65625-22.511719 32.207031-28.847656 18.03125-8.382813 38.273437-9.296875 56.992187-2.464844 38.578126 14.03125 58.542969 56.882813 44.496094 95.472656zm0 0" fill="#ffb6e0" data-original="#FFB6E0" class="" style="fill:#F03FA5" data-old_color="#FFB6E0"/><path d="m305.984375 292.496094-45.488281-124.976563c-14.046875-38.589843 5.921875-81.441406 44.511718-95.472656 18.6875-6.832031 38.945313-5.949219 56.976563 2.464844 13.554687 6.335937 24.640625 16.335937 32.207031 28.847656 34.449219-5.328125 68.945313 14.273437 81.28125 48.175781 14.046875 38.59375-5.917968 81.441406-44.511718 95.472656zm0 0" fill="#ffb6e0" data-original="#FFB6E0" class="" style="fill:#F03FA5" data-old_color="#FFB6E0"/><path d="m143.984375 112h32v32h-32zm0 0" fill="#fff" data-original="#FFF" class="active-path" style="fill:#F03FA5" data-old_color="#CC0021"/><path d="m303.984375 112h32v32h-32zm0 0" fill="#fff" data-original="#FFF" class="active-path" style="fill:#F03FA5" data-old_color="#CC0021"/><path d="m143.984375 336v16c0 5.457031.5625 10.785156 1.441406 16h189.121094c.878906-5.214844 1.4375-10.542969 1.4375-16v-16zm0 0" fill="#dd523c" data-original="#DD523C" class="" style="fill:#DD523C"/></g> </svg>
